#!OML:ASF F:\VICON\USERDATA\INSTALL\rory3\rory3.ASF
:FULLY-SPECIFIED
:DEGREES
252
root 4.81319 17.203 2.73147 10.1942 -20.0887 -2.40031
lowerback 0.028356 1.82383 0.813237
upperback -4.25313 2.44244 -0.183995
thorax -4.35397 1.17905 -0.736706
lowerneck -10.6771 1.74587 -1.06547
upperneck 41.5111 2.28417 1.05445
head 16.7926 0.808622 1.01404
rclavicle 4.83606e-014 3.97569e-015
rhumerus 14.3781 5.4174 -25.0447
rradius 115.619
rwrist -46.7303
rhand -5.7314 -40.7472
rfingers 7.12502
rthumb 20.0905 -69.7284
lclavicle 4.83606e-014 3.97569e-015
lhumerus 23.1983 9.96356 16.5533
lradius 88.6321
lwrist 65.9876
lhand -25.6551 -23.5776
lfingers 7.12502
lthumb 0.878891 6.40038
rfemur -51.3281 -6.64964 14.3503
rtibia 35.4305
rfoot 34.2584 -9.14161
rtoes 2.7045
lfemur -23.6735 4.18577 -28.6287
ltibia 31.3772
lfoot -16.7206 10.7752
ltoes 10.978
253
root 4.80765 17.1905 2.70739 10.5593 -19.4245 -2.03089
lowerback -0.322787 1.60705 0.429613
upperback -4.371 2.13783 -0.264558
thorax -4.29341 1.03977 -0.585439
lowerneck -10.3386 1.71637 -1.15818
upperneck 41.2062 2.21462 1.15989
head 16.5351 0.786256 1.05581
rclavicle -2.27981e-014 -2.10712e-014
rhumerus 14.1958 5.67772 -25.235
rradius 115.526
rwrist -46.4259
rhand -5.77447 -40.4827
rfingers 7.12502
rthumb 20.0491 -69.4683
lclavicle -2.27981e-014 -2.10712e-014
lhumerus 23.3141 9.73855 17.0594
lradius 88.9337
lwrist 65.8165
lhand -23.9211 -36.2448
lfingers 7.12502
lthumb 2.55358 -6.28035
rfemur -52.0296 -7.02485 14.2374
rtibia 35.4814
rfoot 34.8713 -9.09789
rtoes 4.06002
lfemur -24.3235 3.86729 -28.9702
ltibia 31.4658
lfoot -16.5485 10.3915
ltoes 10.7531
254
root 4.81028 17.1945 2.74221 9.99836 -19.9013 -2.07551
lowerback -0.291374 1.83358 0.671465
upperback -4.05368 2.44306 -0.361781
thorax -3.96294 1.18466 -0.824332
lowerneck -10.9749 1.73889 -0.617825
upperneck 41.857 2.27878 0.747583
head 17.0794 0.82953 0.804447
rclavicle -4.52484e-014 1.27222e-014
rhumerus 13.9383 5.91835 -25.4307
rradius 115.418
rwrist -46.2113
rhand -6.56813 -40.8957
rfingers 7.12502
rthumb 19.2861 -69.9593
lclavicle -4.52484e-014 1.27222e-014
lhumerus 23.4392 9.16337 17.46
lradius 88.9385
lwrist 65.55
lhand -22.9169 -45.5031
lfingers 7.12502
lthumb 3.52335 -15.5524
rfemur -51.5376 -6.78451 14.5505
rtibia 35.3579
rfoot 35.0562 -7.81073
rtoes 3.33076
lfemur -23.5418 4.24685 -29.0111
ltibia 31.4692
lfoot -16.7824 10.6482
ltoes 10.6521
255
root 4.80384 17.1777 2.70429 10.5285 -19.2663 -2.00526
lowerback -0.368185 1.62809 0.465794
upperback -4.27668 2.16364 -0.354698
thorax -4.16422 1.05058 -0.695868
lowerneck -10.5071 1.62156 -1.00595
upperneck 41.3004 2.04309 1.12823
head 16.6359 0.733194 0.990679
rclavicle 4.2484e-014 1.39149e-015
rhumerus 13.8106 6.16339 -25.6833
rradius 115.323
rwrist -46.1735
rhand -6.82314 -41.4805
rfingers 7.12502
rthumb 19.0409 -70.5684
lclavicle 4.2484e-014 1.39149e-015
lhumerus 23.383 8.78353 17.7401
lradius 89.0901
lwrist 65.5319
lhand -19.8389 -50.4205
lfingers 7.12502
lthumb 6.49534 -20.5401
rfemur -52.2464 -6.83356 14.6166
rtibia 35.256
rfoot 34.6104 -8.97422
rtoes 3.90633
lfemur -24.4248 3.80083 -29.0127
ltibia 31.7332
lfoot -16.6392 10.4219
ltoes 10.4305
256
root 4.80721 17.1875 2.71891 10.165 -19.6364 -2.2941
lowerback -0.0848154 1.7364 0.804517
upperback -4.02743 2.31898 -0.330885
thorax -4.05091 1.11828 -0.869666
lowerneck -10.9208 1.64964 -0.61827
upperneck 41.4822 2.15089 0.714674
head 16.8559 0.777812 0.762114
rclavicle -3.90736e-014 3.97569e-015
rhumerus 13.8626 6.3068 -25.9739
rradius 115.238
rwrist -46.2178
rhand -5.6522 -40.8383
rfingers 7.12502
rthumb 20.1667 -69.8115
lclavicle -3.90736e-014 3.97569e-015
lhumerus 23.2797 8.62363 18.0074
lradius 89.3267
lwrist 65.495
lhand -23.408 -40.7821
lfingers 7.12502
lthumb 3.04907 -10.8242
rfemur -51.7446 -6.16887 14.943
rtibia 34.9617
rfoot 34.3592 -8.70054
rtoes 2.56932
lfemur -23.9154 3.8273 -28.7107
ltibia 31.7858
lfoot -16.7543 10.8361
ltoes 10.8756
257
root 4.79938 17.1762 2.68268 10.7009 -18.9976 -2.49207
lowerback -0.144867 1.52169 0.828931
upperback -4.21009 2.03615 -0.211962
thorax -4.21603 0.976693 -0.753233
lowerneck -11.1555 1.67122 -0.362737
upperneck 41.7341 2.25069 0.380477
head 17.0694 0.808536 0.588177
rclavicle 3.55949e-015 -1.82882e-014
rhumerus 13.8815 6.56398 -26.2159
rradius 115.163
rwrist -46.1663
rhand -5.88183 -41.87
rfingers 7.12502
rthumb 19.9459 -70.8664
lclavicle 3.55949e-015 -1.82882e-014
lhumerus 23.1352 8.37963 18.3658
lradius 89.5441
lwrist 65.3918
lhand -24.9613 -30.488
lfingers 7.12502
lthumb 1.54893 -0.513893
rfemur -52.3425 -5.99086 15.1949
rtibia 34.8867
rfoot 34.1584 -9.21591
rtoes 1.06648
lfemur -24.7626 3.33959 -28.3691
ltibia 32.0475
lfoot -16.5705 10.5733
ltoes 11.3919
258
root 4.80458 17.1931 2.71458 10.2571 -19.3801 -2.66745
lowerback -0.0735811 1.62447 1.095
upperback -4.00013 2.18149 -0.164584
thorax -4.02748 1.04311 -0.856036
lowerneck -10.9678 1.67153 -0.521489
upperneck 41.7527 2.26879 0.437865
head 17.0274 0.79806 0.643199
rclavicle -1.70706e-014 -1.78906e-015
rhumerus 13.9485 7.01259 -26.4221
rradius 115.08
rwrist -46.0601
rhand -5.43153 -41.7773
rfingers 7.12502
rthumb 20.3787 -70.7281
lclavicle -1.70706e-014 -1.78906e-015
lhumerus 22.7797 7.99496 18.612
lradius 89.7376
lwrist 65.4019
lhand -25.0931 -27.3198
lfingers 7.12502
lthumb 1.42166 2.6552
rfemur -51.8162 -5.5707 15.4595
rtibia 34.8122
rfoot 34.8083 -9.87049
rtoes 5.59238
lfemur -24.1394 3.53377 -28.2348
ltibia 32.1143
lfoot -16.8561 10.8095
ltoes 11.902
259
root 4.79915 17.1751 2.67974 10.7052 -18.4135 -2.16089
lowerback -0.291277 1.23723 0.524299
upperback -4.25519 1.64855 -0.187438
thorax -4.19582 0.794837 -0.541542
lowerneck -10.5203 1.6752 -0.818226
upperneck 41.4576 2.27481 0.618951
head 16.7376 0.783969 0.769182
rclavicle 6.85186e-015 -6.55989e-015
rhumerus 13.9462 7.42235 -26.5325
rradius 115.072
rwrist -46.0065
rhand -5.01602 -41.4477
rfingers 7.12502
rthumb 20.778 -70.3552
lclavicle 6.85186e-015 -6.55989e-015
lhumerus 22.4493 7.5959 18.8153
lradius 89.9338
lwrist 65.4912
lhand -25.3396 -29.1475
lfingers 7.12502
lthumb 1.18355 0.82896
rfemur -52.6137 -6.19058 15.1669
rtibia 34.8688
rfoot 35.2788 -10.0508
rtoes 6.5427
lfemur -25.0304 2.99773 -28.6707
ltibia 32.3268
lfoot -16.7029 10.2664
ltoes 11.7902
260
root 4.79472 17.1604 2.67153 10.7732 -18.0347 -1.77114
lowerback -0.334102 1.08256 0.140969
upperback -4.34566 1.43072 -0.256183
thorax -4.27594 0.698265 -0.391101
lowerneck -9.93284 1.69704 -1.09641
upperneck 41.0025 2.26417 0.887063
head 16.3288 0.782241 0.921796
rclavicle -1.22998e-015 -1.17283e-014
rhumerus 13.7121 7.8538 -26.5977
rradius 115.046
rwrist -45.8497
rhand -4.88567 -41.1603
rfingers 7.12502
rthumb 20.9033 -70.0541
lclavicle -1.22998e-015 -1.17283e-014
lhumerus 22.2848 7.22596 19.1506
lradius 90.1382
lwrist 65.474
lhand -25.3121 -28.8975
lfingers 7.12502
lthumb 1.21017 1.07879
rfemur -52.9536 -6.39371 14.9778
rtibia 34.7929
rfoot 35.6057 -8.25985
rtoes 2.55472
lfemur -25.2541 2.74937 -29.0425
ltibia 32.3309
lfoot -16.584 10.0981
ltoes 11.5535
261
root 4.79073 17.1577 2.6825 10.597 -18.2159 -1.96145
lowerback -0.187322 1.15984 0.294839
upperback -4.27697 1.5396 -0.216061
thorax -4.28395 0.747886 -0.441854
lowerneck -10.0915 1.73646 -0.943119
upperneck 41.1308 2.2959 0.864045
head 16.4409 0.813838 0.893528
rclavicle 9.33542e-014 -4.96962e-015
rhumerus 13.4929 8.31749 -26.7418
rradius 114.923
rwrist -45.6168
rhand -4.94651 -40.9714
rfingers 7.12502
rthumb 20.8448 -69.8716
lclavicle 9.33542e-014 -4.96962e-015
lhumerus 22.2071 6.89174 19.57
lradius 90.2857
lwrist 65.3706
lhand -24.8867 -26.7182
lfingers 7.12502
lthumb 1.62097 3.25534
rfemur -52.8399 -5.92688 15.2451
rtibia 34.7649
rfoot 35.103 -7.01461
rtoes -1.74299
lfemur -25.072 2.83216 -28.8395
ltibia 32.5249
lfoot -16.729 10.2969
ltoes 11.4737
262
root 4.79637 17.1709 2.72286 9.91783 -18.8095 -2.33818
lowerback 0.149629 1.39572 0.797697
upperback -3.97373 1.87118 -0.170972
thorax -4.14204 0.897896 -0.69211
lowerneck -10.5612 1.70072 -0.649659
upperneck 41.5982 2.2948 0.551956
head 16.8309 0.807585 0.714491
rclavicle 3.7297e-014 2.78299e-015
rhumerus 13.305 8.72103 -26.8911
rradius 114.866
rwrist -45.438
rhand -5.00195 -40.9717
rfingers 7.12502
rthumb 20.7915 -69.8777
lclavicle 3.7297e-014 2.78299e-015
lhumerus 22.1376 6.4862 20.0034
lradius 90.3717
lwrist 65.1966
lhand -24.6019 -25.5594
lfingers 7.12502
lthumb 1.89602 4.41196
rfemur -51.9862 -5.34521 15.7096
rtibia 34.6095
rfoot 35.1578 -6.285
rtoes -0.451767
lfemur -24.0691 3.17927 -28.5134
ltibia 32.595
lfoot -17.0506 10.6943
ltoes 11.5681
263
root 4.79118 17.151 2.69142 10.3147 -18.2223 -2.18363
lowerback 0.181765 1.20343 0.526111
upperback -4.22873 1.60878 -0.136568
thorax -4.43863 0.774963 -0.499822
lowerneck -10.629 1.62617 -0.575627
upperneck 41.8 2.26128 0.303359
head 16.9694 0.767629 0.586579
rclavicle -3.24019e-014 -5.36719e-015
rhumerus 13.0504 9.10563 -26.9726
rradius 114.917
rwrist -45.1764
rhand -5.06499 -41.0017
rfingers 7.12502
rthumb 20.731 -69.9143
lclavicle -3.24019e-014 -5.36719e-015
lhumerus 21.9055 6.0035 20.3208
lradius 90.4765
lwrist 64.9916
lhand -24.6508 -26.3065
lfingers 7.12502
lthumb 1.84887 3.66521
rfemur -52.6049 -5.37821 15.6048
rtibia 34.561
rfoot 35.3893 -6.26117
rtoes -0.147186
lfemur -24.826 2.81494 -28.5977
ltibia 32.8891
lfoot -16.9229 10.3872
ltoes 11.4048
264
root 4.7939 17.1411 2.71004 9.82959 -18.5945 -2.15285
lowerback 0.509879 1.33151 0.627673
upperback -4.0386 1.78349 -0.190548
thorax -4.41999 0.857959 -0.624745
lowerneck -10.6418 1.5692 -0.518556
upperneck 41.7846 2.2151 0.160067
head 16.9685 0.738166 0.503834
rclavicle -8.71112e-014 -5.76476e-015
rhumerus 12.9091 9.30308 -27.1568
rradius 114.981
rwrist -44.7958
rhand -4.84991 -41.5009
rfingers 7.12502
rthumb 20.9376 -70.3908
lclavicle -8.71112e-014 -5.76476e-015
lhumerus 21.7034 5.65251 20.5867
lradius 90.6615
lwrist 64.9039
lhand -24.8745 -27.3222
lfingers 7.12502
lthumb 1.6328 2.6513
rfemur -52.2473 -4.85256 15.5537
rtibia 34.5868
rfoot 35.3657 -6.05211
rtoes -0.33373
lfemur -24.3833 2.9298 -28.6688
ltibia 33.1815
lfoot -17.1496 10.7228
ltoes 11.4686
